<?xml version="1.0" encoding="utf-8"?>
<!-- Generator: Adobe Illustrator 16.0.4, SVG Export Plug-In . SVG Version: 6.00 Build 0)  -->
<!DOCTYPE svg PUBLIC "-//W3C//DTD SVG 1.1//EN" "http://www.w3.org/Graphics/SVG/1.1/DTD/svg11.dtd">
<svg version="1.1" id="icon-analytics" xmlns="http://www.w3.org/2000/svg" xmlns:xlink="http://www.w3.org/1999/xlink" x="0px"
	 y="0px" width="72px" height="72px" viewBox="0 0 72 72" enable-background="new 0 0 72 72" xml:space="preserve">
<circle cx="27.167" cy="20.167" r="4"/>
<circle cx="62.166" cy="18.167" r="4"/>
<g>
	<path d="M51.091,30.196l7.529-6.005c-1.366-0.807-2.433-2.062-2.999-3.563l-6.875,5.258C49.993,26.969,50.852,28.483,51.091,30.196
		z"/>
	<path d="M60.777,25.028l-9.829,7.839c-0.696,2.777-3.05,4.9-5.948,5.246V60h17V25.159C61.583,25.149,61.174,25.108,60.777,25.028z"
		/>
</g>
<circle cx="44.166" cy="31.167" r="4"/>
<path d="M34.046,21.434c-0.314,1.709-1.25,3.201-2.565,4.234l5.906,3.786c0.383-1.515,1.258-2.833,2.448-3.775L34.046,21.434z"/>
<path d="M37.193,31.706l-7.708-4.942c-0.475,0.167-0.971,0.288-1.485,0.349V60h15V38.062C39.868,37.533,37.44,34.924,37.193,31.706z
	"/>
<path d="M17.094,28.212l5.203-3.027c-1.141-1.107-1.908-2.596-2.088-4.261l-5.387,3.03C16.032,25.036,16.862,26.527,17.094,28.212z"
	/>
<path d="M24.1,26.45l-7.074,4.115c-0.65,3.192-3.478,5.602-6.859,5.602c-0.056,0-0.111-0.007-0.167-0.008V60h16V27.062
	C25.329,26.948,24.692,26.74,24.1,26.45z"/>
<g>
	<path d="M10.167,25.167c2.209,0,4,1.791,4,4s-1.791,4-4,4s-4-1.791-4-4S7.958,25.167,10.167,25.167"/>
</g>
</svg>
