<?xml version="1.0" encoding="utf-8"?>
<!-- Generator: Adobe Illustrator 23.1.1, SVG Export Plug-In . SVG Version: 6.00 Build 0)  -->
<svg version="1.1" id="Layer_1" xmlns="http://www.w3.org/2000/svg" xmlns:xlink="http://www.w3.org/1999/xlink" x="0px" y="0px"
	 viewBox="0 0 32 32" style="enable-background:new 0 0 32 32;" xml:space="preserve">
<style type="text/css">
	.st0{fill:#FFFFFF;}
</style>
<path class="st0" d="M26.1,14.74V27c0,1.65-1.35,3-3,3H5c-1.65,0-3-1.35-3-3V8.9c0-1.65,1.35-3,3-3h12.16l2-2H5c-2.76,0-5,2.24-5,5
	V27c0,2.76,2.24,5,5,5h18.1c2.76,0,5-2.24,5-5V12.74L26.1,14.74z"/>
<path class="st0" d="M27.3,0L9.54,17.75l-2.03,6.74l6.74-2.03L32,4.7L27.3,0z M29.45,4.7l-0.8,0.8l-2.15-2.15l0.8-0.8L29.45,4.7z
	 M12.08,17.77L25.21,4.64l2.15,2.15L14.23,19.92L12.08,17.77z M10.98,19.24l1.78,1.78l-2.55,0.77L10.98,19.24z"/>
</svg>
