<?xml version="1.0" encoding="utf-8"?>
<!-- Generator: Adobe Illustrator 23.1.1, SVG Export Plug-In . SVG Version: 6.00 Build 0)  -->
<svg version="1.1" id="Layer_2" xmlns="http://www.w3.org/2000/svg" xmlns:xlink="http://www.w3.org/1999/xlink" x="0px" y="0px"
	 viewBox="0 0 96 96" style="enable-background:new 0 0 96 96;" xml:space="preserve">
<style type="text/css">
	.st0{fill:#7A5C9A;}
	.st1{fill:#FFFFFF;}
	.st2{fill:#C5B4D6;}
	.st3{fill:#502A74;}
</style>
<g>
	<path class="st0" d="M54.8,74.78v-2.99v-3.16c8.44-2.91,14.51-10.89,14.51-20.31c0-11.87-9.63-21.5-21.5-21.5
		c-11.87,0-21.5,9.63-21.5,21.5c0,9.44,6.1,17.44,14.56,20.33v3.16v2.98C45.48,75.65,50.12,75.63,54.8,74.78z"/>
	<g>
		<path class="st1" d="M61.26,50.31c-1.1,0-2-0.9-2-2c0-6.34-5.16-11.5-11.5-11.5c-1.1,0-2-0.9-2-2s0.9-2,2-2
			c8.55,0,15.5,6.95,15.5,15.5C63.26,49.41,62.36,50.31,61.26,50.31z"/>
	</g>
	<path class="st2" d="M89.31,44.81H75.08c0.15,1.15,0.23,2.31,0.23,3.5c0,0.84-0.04,1.68-0.12,2.5h14.12c1.66,0,3-1.34,3-3
		S90.97,44.81,89.31,44.81z"/>
	<path class="st2" d="M79.28,16.34c-1.17-1.17-3.07-1.17-4.24,0L64.73,26.65c1.58,1.24,3.03,2.64,4.3,4.18l10.25-10.25
		C80.45,19.41,80.45,17.51,79.28,16.34z"/>
	<path class="st2" d="M47.81,20.81c1.01,0,2.01,0.06,3,0.17V6.31c0-1.66-1.34-3-3-3s-3,1.34-3,3v14.67
		C45.8,20.87,46.8,20.81,47.81,20.81z"/>
	<path class="st2" d="M31.37,26.28L20.5,16.26c-1.22-1.12-3.12-1.04-4.24,0.17c-1.12,1.22-1.05,3.12,0.17,4.24l10.54,9.72
		C28.29,28.87,29.76,27.48,31.37,26.28z"/>
	<path class="st2" d="M20.31,48.31c0-1.19,0.08-2.35,0.23-3.5H6.31c-1.66,0-3,1.34-3,3s1.34,3,3,3h14.12
		C20.35,49.99,20.31,49.15,20.31,48.31z"/>
	<path class="st2" d="M26.15,65.23l-9.81,9.81c-1.17,1.17-1.17,3.07,0,4.24c0.59,0.59,1.35,0.88,2.12,0.88s1.54-0.29,2.12-0.88
		l9.75-9.75C28.79,68.25,27.39,66.8,26.15,65.23z"/>
	<path class="st2" d="M79.28,75.03l-9.81-9.81c-1.24,1.58-2.64,3.03-4.18,4.3l9.75,9.75c0.59,0.59,1.35,0.88,2.12,0.88
		s1.54-0.29,2.12-0.88C80.45,78.1,80.45,76.2,79.28,75.03z"/>
	<path class="st1" d="M47.81,20.81c-15.16,0-27.5,12.34-27.5,27.5c0,12.77,8.75,23.53,20.56,26.61v-0.14V71.8v-3.16
		c-8.46-2.89-14.56-10.89-14.56-20.33c0-11.87,9.63-21.5,21.5-21.5c11.87,0,21.5,9.63,21.5,21.5c0,9.42-6.07,17.41-14.51,20.31v3.16
		v2.99v0.13c11.79-3.1,20.51-13.85,20.51-26.6C75.31,33.15,62.97,20.81,47.81,20.81z"/>
	<path class="st3" d="M52.5,75.12c-0.32,0.04-0.64,0.08-0.96,0.11c-0.38,0.04-0.75,0.06-1.12,0.09c-0.14,0.01-0.28,0.02-0.41,0.03
		c-0.45,0.03-0.89,0.04-1.34,0.05c-0.04,0-0.08,0-0.12,0c0,0-0.01,0-0.01,0c-0.48,0.01-0.96,0.01-1.45,0c0,0,0,0,0,0
		c-0.02,0-0.04,0-0.06,0c-0.5-0.01-0.99-0.03-1.49-0.06c-0.01,0-0.03,0-0.04,0c-0.5-0.03-1-0.07-1.5-0.12
		c-0.07-0.01-0.14-0.02-0.21-0.02c-0.45-0.05-0.89-0.1-1.34-0.16c-0.53-0.08-1.05-0.16-1.58-0.26l2.32,10.94h1.66
		c0.2,1.46,1.44,2.6,2.96,2.6s2.76-1.13,2.96-2.6h1.71l2.32-10.94c-0.56,0.1-1.12,0.19-1.68,0.27C52.92,75.08,52.71,75.1,52.5,75.12
		z"/>
</g>
</svg>
