<?xml version="1.0" encoding="utf-8"?>
<!-- Generator: Adobe Illustrator 16.0.4, SVG Export Plug-In . SVG Version: 6.00 Build 0)  -->
<!DOCTYPE svg PUBLIC "-//W3C//DTD SVG 1.1//EN" "http://www.w3.org/Graphics/SVG/1.1/DTD/svg11.dtd">
<svg version="1.1" id="icon-results" xmlns="http://www.w3.org/2000/svg" xmlns:xlink="http://www.w3.org/1999/xlink" x="0px"
	 y="0px" width="72px" height="72px" viewBox="0 0 72 72" enable-background="new 0 0 72 72" xml:space="preserve">
<path d="M47,24H22c-1.657,0-3-1.343-3-3s1.343-3,3-3h25c1.657,0,3,1.343,3,3S48.657,24,47,24z"/>
<path d="M48.334,34.667c-7.732,0-14,6.268-14,14s6.268,14,14,14s14-6.268,14-14S56.066,34.667,48.334,34.667z M56.924,46.247
	L45.567,57.849l-6.453-6.261c-0.793-0.77-0.812-2.035-0.043-2.828c0.771-0.793,2.035-0.812,2.828-0.043l3.596,3.487l8.569-8.756
	c0.775-0.788,2.04-0.802,2.829-0.03C57.683,44.191,57.696,45.457,56.924,46.247z"/>
<path d="M44.93,31H22c-1.657,0-3,1.343-3,3s1.343,3,3,3h12.653C37.254,33.955,40.846,31.786,44.93,31z"/>
<path d="M30.334,48.667c0-1.981,0.334-3.883,0.928-5.667H22c-1.657,0-3,1.343-3,3s1.343,3,3,3h8.351
	C30.349,48.888,30.334,48.779,30.334,48.667z"/>
<path d="M33.619,59H13V14h42v17.961c1.436,0.575,2.773,1.333,4,2.24V10H9v53h28.49C36.004,61.872,34.695,60.527,33.619,59z"/>
</svg>
