<?xml version="1.0" encoding="utf-8"?>
<!-- Generator: Adobe Illustrator 23.1.1, SVG Export Plug-In . SVG Version: 6.00 Build 0)  -->
<svg version="1.1" id="Layer_3" xmlns="http://www.w3.org/2000/svg" xmlns:xlink="http://www.w3.org/1999/xlink" x="0px" y="0px"
	 viewBox="0 0 96 96" style="enable-background:new 0 0 96 96;" xml:space="preserve">
<style type="text/css">
	.st0{fill:#C5B4D6;}
	.st1{fill:#502A74;}
	.st2{fill:#FFFFFF;}
	.st3{fill:#7A5C9A;}
</style>
<g>
	<path class="st0" d="M75.97,86.31H19.64c-1.84,0-3.34-1.49-3.34-3.34V16.64c0-1.84,1.49-3.34,3.34-3.34h56.33
		c1.84,0,3.34,1.49,3.34,3.34v66.33C79.31,84.82,77.82,86.31,75.97,86.31z"/>
	<path class="st1" d="M62.31,13.31h-7v-5.5c0-1.38-1.12-2.5-2.5-2.5h-10c-1.38,0-2.5,1.12-2.5,2.5v5.5h-7c-1.38,0-2.5,1.12-2.5,2.5
		v3.5h34v-3.5C64.81,14.43,63.69,13.31,62.31,13.31z M47.81,7.31c1.1,0,2,0.9,2,2c0,1.1-0.9,2-2,2s-2-0.9-2-2
		C45.81,8.2,46.7,7.31,47.81,7.31z"/>
	<path class="st2" d="M47.81,76.31c-15.16,0-27.5-12.34-27.5-27.5s12.34-27.5,27.5-27.5s27.5,12.34,27.5,27.5
		S62.97,76.31,47.81,76.31z"/>
	<path class="st3" d="M47.81,27.31c-11.85,0-21.5,9.65-21.5,21.5s9.65,21.5,21.5,21.5s21.5-9.65,21.5-21.5S59.66,27.31,47.81,27.31z
		 M60.35,44.21L44.9,59.66c-0.56,0.56-1.33,0.88-2.12,0.88c-0.8,0-1.56-0.32-2.12-0.88l-7.39-7.39c-1.17-1.17-1.17-3.07,0-4.24
		c1.17-1.17,3.07-1.17,4.24,0l5.27,5.27l13.33-13.33c1.17-1.17,3.07-1.17,4.24,0C61.52,41.13,61.52,43.03,60.35,44.21z"/>
</g>
</svg>
