<?xml version="1.0" encoding="utf-8"?>
<!-- Generator: Adobe Illustrator 23.1.1, SVG Export Plug-In . SVG Version: 6.00 Build 0)  -->
<svg version="1.1" id="Layer_1" xmlns="http://www.w3.org/2000/svg" xmlns:xlink="http://www.w3.org/1999/xlink" x="0px" y="0px"
	 viewBox="0 0 96 96" style="enable-background:new 0 0 96 96;" xml:space="preserve">
<style type="text/css">
	.st0{fill:#C5B4D6;}
	.st1{fill:#FFFFFF;}
	.st2{fill:#502A74;}
	.st3{fill:#7A5C9A;}
</style>
<g>
	<path class="st0" d="M96,49.34c0,0-18,26.9-47.5,26.9S0,49.34,0,49.34s19-27.96,48.5-27.96S96,49.34,96,49.34z"/>
	<g>
		<circle class="st1" cx="48.5" cy="48.81" r="24.5"/>
	</g>
	<path class="st2" d="M87.17,86.25L68.99,67.13C73.34,62.26,76,55.84,76,48.81c0-15.16-12.34-27.5-27.5-27.5S21,33.65,21,48.81
		s12.34,27.5,27.5,27.5c5.97,0,11.51-1.92,16.02-5.17l18.31,19.24c0.59,0.62,1.38,0.93,2.17,0.93c0.74,0,1.49-0.27,2.07-0.83
		C88.27,89.35,88.32,87.45,87.17,86.25z M27,48.81c0-11.85,9.65-21.5,21.5-21.5S70,36.95,70,48.81s-9.65,21.5-21.5,21.5
		S27,60.66,27,48.81z"/>
	<g>
		<circle class="st3" cx="48.5" cy="48.81" r="15.5"/>
	</g>
</g>
</svg>
