<?xml version="1.0" encoding="utf-8"?>
<!-- Generator: Adobe Illustrator 16.0.4, SVG Export Plug-In . SVG Version: 6.00 Build 0)  -->
<!DOCTYPE svg PUBLIC "-//W3C//DTD SVG 1.1//EN" "http://www.w3.org/Graphics/SVG/1.1/DTD/svg11.dtd">
<svg version="1.1" id="icon_x5F_insight" xmlns="http://www.w3.org/2000/svg" xmlns:xlink="http://www.w3.org/1999/xlink" x="0px"
	 y="0px" width="72px" height="72px" viewBox="0 0 72 72" enable-background="new 0 0 72 72" xml:space="preserve">
<path d="M36,16.417c-19.882,0-36,19.209-36,19.209s16.118,19.208,36,19.208c19.883,0,36-19.208,36-19.208S55.883,16.417,36,16.417z
	 M36,48.833c-7.076,0-12.833-5.757-12.833-12.833c0-0.865,0.089-1.709,0.252-2.526l-4.01-0.283c-0.154,0.915-0.242,1.851-0.242,2.81
	c0,5.084,2.264,9.631,5.827,12.717c-8.769-3.274-15.94-9.559-19.5-13.091c3.802-3.772,11.718-10.676,21.3-13.709
	c-1.017,0.666-1.952,1.444-2.8,2.308l2.878,2.769c2.329-2.36,5.559-3.827,9.128-3.827c7.076,0,12.833,5.757,12.833,12.833
	S43.076,48.833,36,48.833z M47.007,48.717c3.562-3.086,5.826-7.633,5.826-12.717c0-5.896-3.037-11.077-7.627-14.083
	c9.583,3.034,17.499,9.938,21.3,13.709C62.945,39.159,55.775,45.442,47.007,48.717z"/>
<path d="M36.083,26.749c-2.581,0-4.913,1.06-6.591,2.765l4.924,4.736l-7.293-0.515c-0.183,0.726-0.291,1.481-0.291,2.264
	c0,5.108,4.142,9.25,9.25,9.25s9.25-4.142,9.25-9.25S41.191,26.749,36.083,26.749z"/>
</svg>
