<?xml version="1.0" encoding="utf-8"?>
<!-- Generator: Adobe Illustrator 16.0.4, SVG Export Plug-In . SVG Version: 6.00 Build 0)  -->
<!DOCTYPE svg PUBLIC "-//W3C//DTD SVG 1.1//EN" "http://www.w3.org/Graphics/SVG/1.1/DTD/svg11.dtd">
<svg version="1.1" id="Layer_1" xmlns="http://www.w3.org/2000/svg" xmlns:xlink="http://www.w3.org/1999/xlink" x="0px" y="0px"
	 width="227.333px" height="41.958px" viewBox="0 0 227.333 41.958" enable-background="new 0 0 227.333 41.958"
	 xml:space="preserve">
<g>
	<path fill="#FFFFFF" d="M1.422,27.553l4.84-24.57h13.745l-0.515,2.606H9.238l-1.623,8.234h8.605l-0.508,2.573H7.108L4.909,27.553
		H1.422z"/>
	<path fill="#FFFFFF" d="M20.01,27.939c-2.724-0.26-4.157-2.609-3.54-5.197c1.215-5.1,7.167-5.848,11.531-5.848l0.43-2.175
		c1.004-5.072-6.236-2.638-8.517-1.544c0.178-0.902,0.357-1.804,0.535-2.706c2.738-1.031,6.281-1.991,9.162-0.961
		c2.343,0.837,2.486,3.226,2.064,5.357c-0.529,2.674-1.059,5.348-1.588,8.022c-0.313,1.583-0.081,3.031,1.816,2.739
		c-0.042,0.603-0.084,1.207-0.126,1.81c-1.057,0.459-2.56,0.817-3.667,0.322c-0.968-0.433-1.274-1.616-1.283-2.497
		C25.615,26.787,22.542,28.181,20.01,27.939z M26.697,23.485l0.923-4.665l-1.04-0.033c-2.561,0-6.553,0.883-6.843,4.032
		c-0.145,1.57,1.139,2.549,2.608,2.469C23.937,25.201,25.422,24.384,26.697,23.485z"/>
	<path fill="#FFFFFF" d="M42.22,27.553c-1.062,0.276-1.965,0.415-2.706,0.415c-1.661,0-2.861-0.476-3.603-1.428
		c-0.742-0.951-0.944-2.274-0.609-3.968L37.4,11.98h-2.26l0.486-2.457h2.26l0.648-3.271l3.336-0.315L41.16,9.523h4.719l-0.487,2.457
		h-4.718l-1.981,9.994c-0.468,2.357,0.317,3.536,2.354,3.536c0.432,0,0.972-0.072,1.62-0.216L42.22,27.553z"/>
	<path fill="#FFFFFF" d="M45.287,27.553L50.49,1.339L53.829,1l-2.362,11.91c2.229-2.523,4.595-3.785,7.099-3.785
		c1.573,0,2.724,0.496,3.451,1.486c0.728,0.991,0.926,2.322,0.593,3.993l-2.576,12.949h-3.271l2.364-11.887
		c0.266-1.339,0.259-2.293-0.021-2.864c-0.28-0.57-0.874-0.855-1.782-0.855c-2.005,0-4.154,1.312-6.447,3.935l-2.317,11.671H45.287z
		"/>
	<path fill="#FFFFFF" d="M72.103,27.968c-2.646,0-4.572-0.847-5.779-2.54s-1.521-3.99-0.944-6.89
		c0.577-2.899,1.807-5.193,3.688-6.881c1.881-1.688,4.146-2.532,6.793-2.532s4.575,0.844,5.784,2.532
		c1.208,1.688,1.522,3.982,0.943,6.881c-0.579,2.9-1.811,5.196-3.692,6.89C77.013,27.121,74.748,27.968,72.103,27.968z
		 M72.585,25.511c1.625,0,3.006-0.608,4.144-1.826c1.139-1.217,1.929-2.933,2.371-5.146c0.441-2.213,0.335-3.926-0.318-5.138
		c-0.654-1.212-1.793-1.818-3.419-1.818s-3.005,0.606-4.137,1.818c-1.131,1.212-1.917,2.925-2.358,5.138
		c-0.441,2.214-0.338,3.93,0.31,5.146C69.823,24.902,70.96,25.511,72.585,25.511z"/>
	<path fill="#FFFFFF" d="M84.439,27.553l3.603-18.029l3.351-0.315l-0.754,3.702c2.097-2.523,4.396-3.785,6.896-3.785
		c2.411,0,3.801,1.262,4.169,3.785c2.056-2.523,4.325-3.785,6.807-3.785c1.584,0,2.723,0.467,3.416,1.401
		c0.693,0.935,0.871,2.242,0.533,3.923l-2.63,13.104h-3.271l2.525-12.587c0.412-2.056-0.197-3.084-1.829-3.084
		c-1.698,0-3.721,1.2-6.065,3.599L98.77,27.553h-3.271l2.523-12.601c0.414-2.069-0.209-3.104-1.871-3.104
		c-1.65,0-3.658,1.207-6.023,3.619L87.71,27.553H84.439z"/>
	<path fill="#FFFFFF" d="M123.971,27.552l4.944-24.57l3.561-0.331l-5.018,24.901H123.971z"/>
	<path fill="#FFFFFF" d="M132.289,27.552l3.633-18.029l3.345-0.313l-0.756,3.7c2.236-2.523,4.607-3.785,7.111-3.785
		c1.572,0,2.723,0.496,3.447,1.486c0.725,0.991,0.918,2.322,0.58,3.993l-2.615,12.949h-3.271l2.398-11.887
		c0.271-1.339,0.268-2.293-0.01-2.864c-0.279-0.57-0.873-0.855-1.779-0.855c-2.006,0-4.158,1.312-6.461,3.935l-2.352,11.671H132.289
		z"/>
	<path fill="#FFFFFF" d="M151.031,26.921l0.607-3.005c1.922,1.062,3.676,1.594,5.258,1.594c0.941,0,1.773-0.255,2.496-0.764
		s1.162-1.146,1.316-1.909c0.227-1.117-0.455-2.042-2.045-2.772l-1.746-0.813c-2.586-1.173-3.658-2.861-3.213-5.063
		c0.318-1.571,1.125-2.808,2.422-3.71c1.293-0.902,2.912-1.353,4.85-1.353c1.008,0,2.227,0.139,3.654,0.415l0.654,0.133
		l-0.551,2.723c-1.717-0.542-3.119-0.813-4.205-0.813c-0.953,0-1.756,0.208-2.41,0.623s-1.053,0.971-1.193,1.668
		c-0.199,0.985,0.43,1.815,1.889,2.49l1.443,0.664c1.631,0.753,2.732,1.547,3.305,2.382c0.572,0.836,0.732,1.879,0.48,3.129
		c-0.322,1.583-1.211,2.883-2.668,3.901s-3.158,1.527-5.107,1.527C154.773,27.967,153.027,27.618,151.031,26.921z"/>
	<path fill="#FFFFFF" d="M194.72,27.552l5.338-26.214l3.35-0.321l-2.434,11.893c2.242-2.523,4.615-3.785,7.119-3.785
		c1.572,0,2.721,0.496,3.443,1.486c0.723,0.991,0.914,2.322,0.572,3.993l-2.643,12.949h-3.273l2.426-11.887
		c0.273-1.339,0.271-2.293-0.004-2.864c-0.277-0.57-0.871-0.855-1.777-0.855c-2.006,0-4.162,1.312-6.469,3.935l-2.379,11.671H194.72
		z"/>
	<path fill="#FFFFFF" d="M222.312,27.552c-1.064,0.276-1.967,0.415-2.709,0.415c-1.66,0-2.857-0.476-3.594-1.428
		c-0.734-0.952-0.93-2.274-0.584-3.968l2.164-10.592h-2.26l0.502-2.457h2.26l0.668-3.271l3.338-0.315l-0.732,3.586h4.719
		l-0.502,2.457h-4.719l-2.043,9.994c-0.482,2.357,0.295,3.536,2.332,3.536c0.432,0,0.973-0.071,1.621-0.216L222.312,27.552z"/>
	<path fill="#FFFFFF" d="M190.425,9.522l-0.418,2.059c-1.121-1.638-2.691-2.457-4.709-2.457c-2.307,0-4.363,0.863-6.166,2.59
		s-2.982,3.962-3.539,6.707c-0.545,2.679-0.338,4.801,0.619,6.367s2.527,2.349,4.713,2.349c1.285,0,2.518-0.332,3.701-0.996
		c1.182-0.664,2.178-1.594,2.986-2.789l-0.578,2.839c-0.793,3.907-3.031,5.86-6.711,5.86c-1.848,0-3.629-0.441-5.344-1.324
		l-0.592,2.934c1.693,0.557,3.504,0.848,5.443,0.848c3.033,0,5.418-0.758,7.154-2.273c0.982-0.863,1.76-1.973,2.328-3.329
		c0.57-1.355,1.141-3.445,1.715-6.268l2.738-13.428L190.425,9.522z M188.031,21.297c-2.078,1.979-4.064,2.968-5.961,2.968
		c-2.783,0-3.777-1.957-2.984-5.869c0.434-2.133,1.199-3.802,2.299-5.007c1.098-1.205,2.404-1.807,3.912-1.807
		c1.697,0,3.115,0.746,4.254,2.238L188.031,21.297z"/>
	<path fill="#FFFFFF" d="M172.849,10.067c-0.852,0-1.654-0.201-2.373-0.549l-0.045,0.004l-3.654,18.029h3.27l3.559-17.543
		C173.357,10.043,173.107,10.067,172.849,10.067z"/>
	<path fill="#26A9E0" d="M35.469,32.394c4.391,1.076,8.732,2.366,13.168,3.243c6.042,1.194,12.074,2.296,18.231,2.678
		c6.388,0.396,12.729,0.289,19.093-0.439c6.535-0.748,12.977-2.052,19.439-3.25c11.695-2.167,23.373-3.842,35.284-4.006
		c9.619-0.133,19.157,0.62,28.702,1.774c-4.37-0.104-8.762-0.492-13.131-0.444c-3.006,0.033-6.011,0.057-9.016,0.045
		c-3.053-0.012-6.123,0.261-9.172,0.405c-3.123,0.071-6.27,0.518-9.378,0.817c-3.14,0.304-6.296,0.765-9.409,1.27
		c-6.458,1.048-12.866,2.343-19.299,3.525c-6.066,1.115-12.142,2.026-18.3,2.403c-5.906,0.361-11.755,0.04-17.633-0.595
		c-5.663-0.611-11.191-2.157-16.692-3.556C43.344,35.16,39.399,33.765,35.469,32.394z"/>
	<circle fill="#26A9E0" cx="172.849" cy="4.617" r="2.148"/>
</g>
</svg>
