<?xml version="1.0" encoding="utf-8"?>
<!-- Generator: Adobe Illustrator 16.0.4, SVG Export Plug-In . SVG Version: 6.00 Build 0)  -->
<!DOCTYPE svg PUBLIC "-//W3C//DTD SVG 1.1//EN" "http://www.w3.org/Graphics/SVG/1.1/DTD/svg11.dtd">
<svg version="1.1" id="Layer_1" xmlns="http://www.w3.org/2000/svg" xmlns:xlink="http://www.w3.org/1999/xlink" x="0px" y="0px"
	 width="274.5px" height="19px" viewBox="0 0 274.5 19" enable-background="new 0 0 274.5 19" xml:space="preserve">
<path fill="#15cee4" d="M-1.5,3.825c8.885,2.346,17.757,4.682,26.736,6.651c12.317,2.703,24.742,4.569,37.305,5.624
	c12.756,1.07,25.677,0.656,38.388-0.736c13.198-1.447,26.204-4,39.238-6.465c12.875-2.435,25.75-4.687,38.751-6.342
	c12.679-1.613,25.484-2.375,38.259-2.535c10.63-0.133,21.227,0.402,31.831,1.052c4.835,0.402,9.668,0.819,14.487,1.36
	c3.744,0.419,7.521,0.538,11.255,1c0,8.256,0,15.897,0,15.897H-1.5C-1.5,19.329-1.5,10.813-1.5,3.825z"/>
</svg>
