<?xml version="1.0" encoding="utf-8"?>
<!-- Generator: Adobe Illustrator 23.1.1, SVG Export Plug-In . SVG Version: 6.00 Build 0)  -->
<svg version="1.1" id="Layer_1" xmlns="http://www.w3.org/2000/svg" xmlns:xlink="http://www.w3.org/1999/xlink" x="0px" y="0px"
	 viewBox="0 0 278 24" style="enable-background:new 0 0 278 24;" xml:space="preserve">
<style type="text/css">
	.st0{fill:#FFFFFF;}
	.st1{fill:#27AAE1;}
</style>
<path class="st0" d="M2,5.8c0,0,4.19,1.12,11.53,3.09c1.84,0.45,3.88,0.94,6.1,1.49c1.11,0.27,2.26,0.56,3.46,0.85
	s2.45,0.54,3.74,0.83c2.58,0.54,5.31,1.21,8.22,1.73c2.91,0.5,5.95,1.16,9.14,1.66c1.6,0.24,3.23,0.49,4.9,0.74
	c0.83,0.13,1.67,0.25,2.52,0.38c0.85,0.1,1.71,0.2,2.57,0.29c1.73,0.2,3.49,0.41,5.27,0.62c1.79,0.2,3.61,0.31,5.45,0.47
	c1.84,0.16,3.71,0.31,5.6,0.36c1.89,0.07,3.81,0.18,5.75,0.23c1.94,0.01,3.9,0.02,5.87,0.03c1.98,0.03,3.97-0.09,5.98-0.13
	c8.04-0.26,16.32-1.12,24.71-2.29c8.39-1.18,16.88-2.77,25.38-4.42c8.51-1.61,17.06-3.25,25.52-4.65c4.23-0.72,8.44-1.36,12.61-1.89
	c2.09-0.27,4.16-0.53,6.22-0.79c2.07-0.22,4.12-0.44,6.15-0.66c2.03-0.24,4.05-0.38,6.05-0.56c2-0.16,3.98-0.36,5.95-0.45
	c3.93-0.19,7.77-0.47,11.52-0.53c3.74-0.11,7.38-0.23,10.91-0.18c1.76,0.01,3.49,0.02,5.19,0.02c1.7,0.01,3.36,0.09,5,0.13
	c6.53,0.12,12.5,0.57,17.79,0.89c5.28,0.44,9.88,0.86,13.66,1.26c3.77,0.47,6.74,0.83,8.76,1.08c2.02,0.25,3.09,0.39,3.09,0.39
	s-4.33-0.19-11.92-0.52c-3.79-0.11-8.39-0.23-13.67-0.38c-5.28-0.01-11.23-0.12-17.72,0.03c-1.62,0.03-3.28,0.03-4.96,0.09
	c-1.69,0.07-3.4,0.14-5.15,0.21c-1.74,0.09-3.52,0.1-5.32,0.22c-1.8,0.11-3.63,0.22-5.48,0.33c-7.41,0.45-15.19,1.22-23.23,2.16
	c-8.04,0.92-16.28,2.31-24.67,3.71c-8.38,1.44-16.87,3.13-25.39,4.79c-8.54,1.6-17.12,3.15-25.65,4.3
	c-8.53,1.17-17.02,1.78-25.24,1.92c-2.06,0-4.09,0.08-6.11,0.01c-2.02-0.07-4.01-0.13-5.99-0.2c-1.97-0.11-3.92-0.28-5.85-0.42
	c-1.93-0.11-3.82-0.33-5.69-0.55c-7.49-0.74-14.47-2.07-20.88-3.37c-3.2-0.65-6.24-1.43-9.14-2.11c-2.9-0.69-5.6-1.52-8.16-2.21
	c-1.28-0.36-2.52-0.68-3.7-1.04c-1.18-0.37-2.32-0.73-3.42-1.08c-2.2-0.68-4.21-1.31-6.02-1.89c-3.6-1.22-6.39-2.27-8.31-2.94
	C3.02,6.16,2,5.8,2,5.8z"/>
<path class="st1" d="M0,3.8c0,0,4.19,1.12,11.53,3.09c1.84,0.45,3.88,0.94,6.1,1.49c1.11,0.27,2.26,0.56,3.46,0.85
	s2.45,0.54,3.74,0.83c2.58,0.54,5.31,1.21,8.22,1.73c2.91,0.5,5.95,1.16,9.14,1.66c1.6,0.24,3.23,0.49,4.9,0.74
	c0.83,0.13,1.67,0.25,2.52,0.38c0.85,0.1,1.71,0.2,2.57,0.29c1.73,0.2,3.49,0.41,5.27,0.62c1.79,0.2,3.61,0.31,5.45,0.47
	c1.84,0.16,3.71,0.31,5.6,0.36c1.89,0.07,3.81,0.18,5.75,0.23c1.94,0.01,3.9,0.02,5.87,0.03c1.98,0.03,3.97-0.09,5.98-0.13
	c8.04-0.26,16.32-1.12,24.71-2.29c8.39-1.18,16.88-2.77,25.38-4.42c8.51-1.61,17.06-3.25,25.52-4.65c4.23-0.72,8.44-1.36,12.61-1.89
	c2.09-0.27,4.16-0.53,6.22-0.79c2.07-0.22,4.12-0.44,6.15-0.66c2.03-0.24,4.05-0.38,6.05-0.56c2-0.16,3.98-0.36,5.95-0.45
	c3.93-0.19,7.77-0.47,11.52-0.53c3.74-0.11,7.38-0.23,10.91-0.18c1.76,0.01,3.49,0.02,5.19,0.02c1.7,0.01,3.36,0.09,5,0.13
	c6.53,0.12,12.5,0.57,17.79,0.89c5.28,0.44,9.88,0.86,13.66,1.26c3.77,0.47,6.74,0.83,8.76,1.08c2.02,0.25,3.09,0.39,3.09,0.39
	s-4.33-0.19-11.92-0.52c-3.79-0.11-8.39-0.23-13.67-0.38c-5.28-0.01-11.23-0.12-17.72,0.03c-1.62,0.03-3.28,0.03-4.96,0.09
	c-1.69,0.07-3.4,0.14-5.15,0.21c-1.74,0.09-3.52,0.1-5.32,0.22c-1.8,0.11-3.63,0.22-5.48,0.33c-7.41,0.45-15.19,1.22-23.23,2.16
	c-8.04,0.92-16.28,2.31-24.67,3.71c-8.38,1.44-16.87,3.13-25.39,4.79c-8.54,1.6-17.12,3.15-25.65,4.3
	c-8.53,1.17-17.02,1.78-25.24,1.92c-2.06,0-4.09,0.08-6.11,0.01c-2.02-0.07-4.01-0.13-5.99-0.2c-1.97-0.11-3.92-0.28-5.85-0.42
	c-1.93-0.11-3.82-0.33-5.69-0.55c-7.49-0.74-14.47-2.07-20.88-3.37c-3.2-0.65-6.24-1.43-9.14-2.11c-2.9-0.69-5.6-1.52-8.16-2.21
	c-1.28-0.36-2.52-0.68-3.7-1.04c-1.18-0.37-2.32-0.73-3.42-1.08c-2.2-0.68-4.21-1.31-6.02-1.89c-3.6-1.22-6.39-2.27-8.31-2.94
	C1.02,4.16,0,3.8,0,3.8z"/>
</svg>
